<svg width="1366" height="1024" viewBox="0 0 1366 1024" fill="none" xmlns="http://www.w3.org/2000/svg">
<rect x="-1" width="1366" height="1024" fill="url(#paint0_linear)"/>
<path opacity="0.2" fill-rule="evenodd" clip-rule="evenodd" d="M-1 701.232L32.0358 714.681C63.9325 728.13 128.865 755.027 193.798 748.303C259.869 741.578 324.802 701.232 389.734 674.335C454.667 647.438 519.599 633.989 584.532 640.714C649.464 647.438 715.536 674.335 780.468 721.405C845.401 768.476 910.333 835.719 975.266 849.168C1040.2 862.616 1105.13 822.27 1171.2 788.649C1236.14 755.027 1301.07 728.13 1332.96 714.681L1366 701.232V1024H1332.96C1301.07 1024 1236.14 1024 1171.2 1024C1105.13 1024 1040.2 1024 975.266 1024C910.333 1024 845.401 1024 780.468 1024C715.536 1024 649.464 1024 584.532 1024C519.599 1024 454.667 1024 389.734 1024C324.802 1024 259.869 1024 193.798 1024C128.865 1024 63.9325 1024 32.0358 1024H-1V701.232Z" fill="white"/>
<defs>
<linearGradient id="paint0_linear" x1="-22.3437" y1="-10.8697" x2="717.081" y2="1073.41" gradientUnits="userSpaceOnUse">
<stop stop-color="#7DD394"/>
<stop offset="0.758871" stop-color="#209C9F"/>
</linearGradient>
</defs>
</svg>
